<svg data-v-0dd9719b="" version="1.0" xmlns="http://www.w3.org/2000/svg" xmlns:xlink="http://www.w3.org/1999/xlink" width="100%" height="100%" viewBox="0 0 340.000000 250.000000" preserveAspectRatio="xMidYMid meet" color-interpolation-filters="sRGB" style="margin: auto;"> <rect data-v-0dd9719b="" x="0" y="0" width="100%" height="100%" fill="#ffffff" fill-opacity="1" class="background"></rect> <rect data-v-0dd9719b="" x="0" y="0" width="100%" height="100%" fill="url(#watermark)" fill-opacity="1" class="watermarklayer"></rect> <g data-v-0dd9719b="" fill="#333" class="icon-text-wrapper icon-svg-group iconsvg" transform="translate(71.09500122078165,97.49945068359375)"><g class="iconsvg-imagesvg" transform="translate(0,0)"><g><rect fill="#333" fill-opacity="0" stroke-width="2" x="0" y="0" width="55" height="55.00110002200044" class="image-rect"></rect> <svg x="0" y="0" width="55" height="55.00110002200044" filtersec="colorsb5718402512" class="image-svg-svg primary" style="overflow: visible;"><svg xmlns="http://www.w3.org/2000/svg" viewBox="-0.0019585678819566965 0.0002686096995603293 163.05958557128906 163.06222534179688"><title>36</title><path d="M130.42 32.48a91.37 91.37 0 0 1-59.82 34c-22.55 3-33.09-7.69-30-28.18 4.14-27.72 37.76-38.23 77-29.87A81.57 81.57 0 0 0 .84 93.3a82.71 82.71 0 0 0 45.64 12.87 84.74 84.74 0 0 0 83.94-73.69" fill="#e37315"></path><path d="M130.42 32.48a91.37 91.37 0 0 1-59.82 34c-22.55 3-33.09-7.69-30-28.18 4.14-27.72 37.76-38.23 77-29.87a81.17 81.17 0 0 0-65-3.08c-16.6 8-25 21.43-27.85 34.92C17.08 77.08 43 93.57 77.1 83.86c19.23-5.47 40-20.46 53.32-51.38" fill="#efefeb" fill-rule="evenodd" opacity=".05"></path><path d="M136.67 36.75A91.56 91.56 0 0 1 46.48 113a90.92 90.92 0 0 1-43.93-11.18A82 82 0 0 0 27.94 143c17.24 4.35 42.35 5.1 64.39-5.54a84.75 84.75 0 0 0 44.34-100.7" fill="#016737" fill-rule="evenodd"></path><path d="M136.67 36.75A91.56 91.56 0 0 1 46.48 113a90.92 90.92 0 0 1-43.93-11.18A82 82 0 0 0 27.94 143c17.24 4.35 42.35 5.1 64.39-5.54a84.75 84.75 0 0 0 44.34-100.7" fill="#016737"></path><path d="M136.67 36.75A91.56 91.56 0 0 1 46.48 113a90.92 90.92 0 0 1-43.93-11.18 81.83 81.83 0 0 0 8.38 20.48 83.88 83.88 0 0 0 2.66 4.3c43.15 12.15 117.41-5.8 123.08-89.85" fill="#efefeb" fill-rule="evenodd" opacity=".05"></path><path d="M139.1 23.79a91.55 91.55 0 0 1-99.87 127.45A81.54 81.54 0 0 0 139.1 23.79" fill="#039"></path></svg></svg> <!----></g></g> <g transform="translate(62,6.694299697875977)"><g data-gra="path-name" fill-rule="" class="tp-name iconsvg-namesvg" transform="translate(0,0)"><g transform="scale(1)"><g><path d="M18.3-0.26L13.39-0.26 1.36-0.26 1.36-3.67 13.39-3.67 13.39-26.15 18.3-26.15 18.3-18.08 29.96-18.08 29.96-14.67 18.3-14.67 18.3-3.67 32.35-3.67 32.35-0.26 18.3-0.26ZM68.33-9.5L66.64-9.5 66.64-6.42 67.74-6.42 67.74-3.56 66.64-3.56 66.64-2.86Q66.64-1.47 65.58-0.59L65.58-0.59Q64.73 0.04 63.74 0.04L63.74 0.04 58.31 0.04 59.71-2.53 61.17-2.53Q61.54-2.53 61.76-2.75L61.76-2.75Q62.02-3.01 62.02-3.37L62.02-3.37 62.02-3.56 49.73-3.56Q48.41-3.56 47.49-4.49 46.58-5.43 46.58-6.71L46.58-6.71 46.58-9.5 45.11-9.5 45.11-12.76 46.58-12.76 46.58-19.58 66.64-19.58 66.64-12.76 68.33-12.76 68.33-9.5ZM47.93-26.55L53.44-26.55 52.59-24.79 68.22-24.79 68.22-21.13 45.55-21.13 47.93-26.55ZM39.32-12.18L35.83-20.5 38.4-20.5 35.83-26.55 40.97-26.55 44.38-18.3 41.88-18.3 44.38-12.18 39.32-12.18ZM40.97 0.11L35.83 0.11 39.32-10.45 44.38-10.45 40.97 0.11ZM51.09-16.39L51.09-12.76 54.79-12.76 54.13-15.48 57.95-15.48 58.75-12.76 62.02-12.76 62.02-16.39 51.09-16.39ZM62.02-6.42L62.02-9.5 51.09-9.5 51.09-7.59Q51.09-7.08 51.44-6.75 51.79-6.42 52.3-6.42L52.3-6.42 54.68-6.42 54.13-8.69 57.95-8.69 58.61-6.42 62.02-6.42ZM100.71-23.51L93.27-15.55 103.31-15.55 103.31-11.77 91.43-11.77 91.43-3.3Q91.43-1.94 90.48-0.99 89.52-0.04 88.17-0.04L88.17-0.04 80.32-0.04 81.42-3.04 85.67-3.04Q86-3.04 86.26-3.3 86.52-3.56 86.48-3.89L86.48-3.89 86.48-11.77 71.22-11.77 71.22-15.55 87.03-15.55 93.6-22.59 73.68-22.59 73.68-26.37 97.12-26.37 100.71-26.37 100.71-23.51ZM106.32 0.04L109.84-10.75 104.86-10.75 104.86-14.38 118.9-14.38 118.9-19.58 109.7-19.58 105.85-19.58 107.68-26.22 112.89-26.22 112.08-23.25 118.9-23.25 118.9-26.44 124-26.44 124-23.25 136.25-23.25 136.25-19.58 124-19.58 124-14.38 136.76-14.38 136.76-10.75 130.23-10.75 130.23-4.73Q130.23-4.25 130.56-3.91 130.89-3.56 131.37-3.56L131.37-3.56 137.17-3.56 135.55 0.04 129.17 0.04Q128.33 0.04 127.59-0.28 126.86-0.59 126.31-1.14 125.76-1.69 125.45-2.4 125.14-3.12 125.14-3.96L125.14-3.96 125.14-10.75 124-10.75 118.9-10.75 115.75-10.75 112.23 0.04 106.32 0.04Z" transform="translate(-1.3600000143051147, 26.549999237060547)"></path></g> <!----> <!----> <!----> <!----> <!----> <!----> <!----></g></g> <g data-gra="path-slogan" fill-rule="" class="tp-slogan iconsvg-slogansvg" fill="#333" transform="translate(5,33.65999984741211)"><rect x="0" height="1" y="3.9750003814697266" width="8.504173278808594"></rect> <rect height="1" y="3.9750003814697266" width="8.504173278808594" x="117.30582427978516"></rect> <g transform="translate(11.504173278808594,0)"><g transform="scale(1)"><path d="M7.17-6.09L7.17-6.09L6.09-6.09Q6-7.73 3.94-7.83L3.94-7.83Q2.02-7.78 2.02-6.33L2.02-6.33Q2.02-5.39 3.05-5.25L3.05-5.25L5.48-4.69Q7.41-4.22 7.41-2.34L7.41-2.34Q7.36 0.05 4.03 0.14L4.03 0.14Q2.20 0.14 1.45-0.61L1.45-0.61Q0.52-1.31 0.56-2.77L0.56-2.77L1.69-2.77Q1.73-0.80 4.03-0.75L4.03-0.75Q6.28-0.80 6.33-2.20L6.33-2.20Q6.52-3.38 4.45-3.75L4.45-3.75L2.67-4.13Q0.84-4.64 0.84-6.19L0.84-6.19Q0.98-8.72 3.84-8.81L3.84-8.81Q7.08-8.81 7.17-6.09ZM10.03-5.06L14.53-5.06L14.53-8.58L15.70-8.58L15.70 0L14.53 0L14.53-3.98L10.03-3.98L10.03 0L8.86 0L8.86-8.58L10.03-8.58L10.03-5.06ZM23.16 0L22.31-2.48L18.84-2.48L17.95 0L16.78 0L20.02-8.58L21.33-8.58L24.42 0L23.16 0ZM20.58-7.31L19.22-3.52L21.89-3.52L20.63-7.31L20.58-7.31ZM26.86-8.58L31.17-1.64L31.17-8.58L32.30-8.58L32.30 0L30.98 0L26.63-6.94L26.58-6.94L26.58 0L25.45 0L25.45-8.58L26.86-8.58ZM40.50-3.61L37.88-3.61L37.88-4.59L41.63-4.59L41.63 0L40.88 0L40.59-1.08Q39.61 0.09 37.78 0.14L37.78 0.14Q36.05 0.14 35.11-0.75L35.11-0.75Q33.70-2.06 33.75-4.36L33.75-4.36Q34.08-8.63 37.83-8.81L37.83-8.81Q41.02-8.63 41.48-6L41.48-6L40.36-6Q39.89-7.78 37.78-7.83L37.78-7.83Q35.11-7.64 34.97-4.31L34.97-4.31Q34.97-0.75 37.83-0.75L37.83-0.75Q38.86-0.75 39.61-1.31L39.61-1.31Q40.55-2.06 40.50-3.61L40.50-3.61ZM44.58-5.06L49.08-5.06L49.08-8.58L50.25-8.58L50.25 0L49.08 0L49.08-3.98L44.58-3.98L44.58 0L43.41 0L43.41-8.58L44.58-8.58L44.58-5.06ZM57.70 0L56.86-2.48L53.39-2.48L52.50 0L51.33 0L54.56-8.58L55.88-8.58L58.97 0L57.70 0ZM55.13-7.31L53.77-3.52L56.44-3.52L55.17-7.31L55.13-7.31ZM60.19-8.58L61.36-8.58L61.36 0L60.19 0L60.19-8.58ZM67.50-1.03L72.80-1.03L72.80 0L66.05 0L66.05-0.94L71.30-7.59L66.42-7.59L66.42-8.58L72.80-8.58L72.80-7.59L67.50-1.03ZM74.11-8.58L75.28-8.58L75.28 0L74.11 0L74.11-8.58ZM84-8.58L81.09-4.41L84.14 0L82.69 0L80.34-3.52L78 0L76.59 0L79.69-4.41L76.78-8.58L78.23-8.58L80.39-5.30L82.59-8.58L84-8.58ZM85.41-8.58L86.58-8.58L86.58 0L85.41 0L85.41-8.58ZM94.22 0L93.38-2.48L89.91-2.48L89.02 0L87.84 0L91.08-8.58L92.39-8.58L95.48 0L94.22 0ZM91.64-7.31L90.28-3.52L92.95-3.52L91.69-7.31L91.64-7.31ZM97.92-8.58L102.23-1.64L102.23-8.58L103.36-8.58L103.36 0L102.05 0L97.69-6.94L97.64-6.94L97.64 0L96.52 0L96.52-8.58L97.92-8.58Z" transform="translate(-0.5602678571428572, 8.8125)"></path></g></g></g></g></g><defs v-gra="od"></defs></svg>